<svg xmlns="http://www.w3.org/2000/svg" viewBox="0 0 128 128" width="100%" height="100%">
  <defs>
    <linearGradient id="roseGoldRing" x1="0%" y1="0%" x2="100%" y2="100%">
      <stop offset="0%" stop-color="#caa075"/>
      <stop offset="35%" stop-color="#e8b898"/>
      <stop offset="70%" stop-color="#caa075"/>
      <stop offset="100%" stop-color="#9c7042"/>
    </linearGradient>
    <linearGradient id="roseHair" x1="0%" y1="0%" x2="100%" y2="100%">
      <stop offset="0%" stop-color="#ebc4b7"/>
      <stop offset="50%" stop-color="#c77d6e"/>
      <stop offset="100%" stop-color="#9c4f40"/>
    </linearGradient>
    <linearGradient id="goldLeaf" x1="0%" y1="0%" x2="100%" y2="100%">
      <stop offset="0%" stop-color="#e7d8bf"/>
      <stop offset="50%" stop-color="#caa075"/>
      <stop offset="100%" stop-color="#a27443"/>
    </linearGradient>
  </defs>

  <!-- Background Circle -->
  <circle cx="64" cy="64" r="60" fill="#ffffff" stroke="url(#roseGoldRing)" stroke-width="4.5"/>

  <!-- Botanical Leaf Element -->
  <path d="M68 31 C76 38, 86 44, 76 66 C70 58, 64 45, 68 31 Z" fill="url(#goldLeaf)" opacity="0.9"/>
  
  <!-- Flowing Hair Gradient -->
  <path d="M54 28 C62 25, 78 30, 88 44 C98 58, 96 76, 88 90 C80 102, 64 108, 60 110 C62 100, 68 88, 74 76 C78 68, 76 56, 70 48 C64 40, 56 34, 54 28 Z" fill="url(#roseHair)"/>

  <!-- Face Profile Silhouette Line -->
  <path d="M54 28 C48 35, 45 42, 44 48 C43 51, 38 54, 36 55 C40 58, 40 62, 38 65 C40 68, 43 72, 48 74 C54 76, 60 72, 66 66" fill="none" stroke="#caa075" stroke-width="3" stroke-linecap="round" stroke-linejoin="round"/>
</svg>